# cube.obj

# 8 vertices
# front U-1234
v -1 1 1
v -1 -1 1
v 1 -1 1
v 1 1 1
# back U-5678
v -1 1 -1
v -1 -1 -1
v 1 -1 -1
v 1 1 -1

# normals
# front
vn  0.0  0.0  1.0
# back
vn  0.0  0.0 -1.0
# top
vn  0.0  1.0  0.0
# bottom
vn  0.0 -1.0  0.0
# left
vn  -1.0  0.0  0.0
# right
vn 1.0  0.0  0.0

# faces v//vn
# front face
f 1//1 2//1 3//1
f 1//1 3//1 4//1
# back face
f 8//2 7//2 6//2
f 8//2 6//2 5//2
# top
f 5//3 1//3 4//3
f 5//3 4//3 8//3
# bottom face
f 7//4 3//4 2//4
f 7//4 2//4 6//4
# left face
f 5//5 6//5 2//5
f 5//5 2//5 1//5
# right face
f 4//6 3//6 7//6
f 4//6 7//6 8//6
